<mxfile host="app.diagrams.net" modified="2024-05-22T09:36:14.030Z" agent="Mozilla/5.0 (Windows NT 10.0; Win64; x64; rv:126.0) Gecko/20100101 Firefox/126.0" version="24.4.4" etag="yl9yHbPhC5opYzVJN_C3" type="github">
  <diagram name="Page-1" id="-Jo-SncM-gdNGSBiezSo">
    <mxGraphModel>
      <root>
        <mxCell id="0" />
        <mxCell id="1" parent="0" />
      </root>
    </mxGraphModel>
  </diagram>
</mxfile>
